<mxfile host="Electron" modified="2021-03-25T13:04:24.503Z" agent="5.0 (X11; Linux x86_64) AppleWebKit/537.36 (KHTML, like Gecko) draw.io/14.4.3 Chrome/87.0.4280.141 Electron/11.3.0 Safari/537.36" etag="N0fhUMJACdX2FtIih7Fd" compressed="false" version="14.4.3" type="device">
  <diagram id="uBbau7ussQgPSl02ERnx" name="Page-1">
    <mxGraphModel dx="1078" dy="711" grid="1" gridSize="10" guides="1" tooltips="1" connect="1" arrows="1" fold="1" page="1" pageScale="1" pageWidth="827" pageHeight="1169" math="0" shadow="0">
      <root>
        <mxCell id="0" />
        <mxCell id="1" parent="0" />
        <mxCell id="351" value="начало&lt;br&gt;list_release_memory" style="rounded=1;whiteSpace=wrap;html=1;arcSize=50;" parent="1" vertex="1">
          <mxGeometry x="10" y="10" width="120" height="30" as="geometry" />
        </mxCell>
        <mxCell id="352" value="конец" style="rounded=1;whiteSpace=wrap;html=1;arcSize=50;" parent="1" vertex="1">
          <mxGeometry x="10" y="900" width="120" height="30" as="geometry" />
        </mxCell>
        <mxCell id="349" value="Цикл F&lt;br&gt;ListElement * cur = last_readed;cur;" style="strokeWidth=1;html=1;shape=mxgraph.flowchart.loop_limit;whiteSpace=wrap;flipV=0;" parent="1" vertex="1">
          <mxGeometry x="10" y="320" width="120" height="60" as="geometry" />
        </mxCell>
        <mxCell id="350" value="Цикл F" style="strokeWidth=1;html=1;shape=mxgraph.flowchart.loop_limit;whiteSpace=wrap;flipV=1;" parent="1" vertex="1">
          <mxGeometry x="10" y="820" width="120" height="60" as="geometry" />
        </mxCell>
        <mxCell id="348" value="cur = next" style="rounded=0;whiteSpace=wrap;html=1;" parent="1" vertex="1">
          <mxGeometry x="10" y="740" width="120" height="60" as="geometry" />
        </mxCell>
        <mxCell id="353" style="edgeStyle=orthogonalEdgeStyle;rounded=0;orthogonalLoop=1;jettySize=auto;html=1;exitX=0.5;exitY=1;exitDx=0;exitDy=0;entryX=0.5;entryY=0;entryDx=0;entryDy=0;" parent="1" source="348" target="350" edge="1">
          <mxGeometry relative="1" as="geometry" />
        </mxCell>
        <mxCell id="6v_WRbxLs9FEiF1PuRPo-372" style="edgeStyle=orthogonalEdgeStyle;rounded=0;orthogonalLoop=1;jettySize=auto;html=1;exitX=0.5;exitY=1;exitDx=0;exitDy=0;entryX=0.5;entryY=0;entryDx=0;entryDy=0;" parent="1" source="347" target="6v_WRbxLs9FEiF1PuRPo-364" edge="1">
          <mxGeometry relative="1" as="geometry" />
        </mxCell>
        <mxCell id="6v_WRbxLs9FEiF1PuRPo-375" style="edgeStyle=orthogonalEdgeStyle;rounded=0;orthogonalLoop=1;jettySize=auto;html=1;exitX=1;exitY=0.5;exitDx=0;exitDy=0;" parent="1" source="347" edge="1">
          <mxGeometry relative="1" as="geometry">
            <mxPoint x="70" y="720" as="targetPoint" />
            <Array as="points">
              <mxPoint x="170" y="510" />
              <mxPoint x="170" y="720" />
            </Array>
          </mxGeometry>
        </mxCell>
        <mxCell id="347" value="cur &amp;lt;= first_alloc_begin&lt;br&gt;&amp;nbsp;" style="rhombus;whiteSpace=wrap;html=1;rounded=0;" parent="1" vertex="1">
          <mxGeometry x="10" y="480" width="120" height="60" as="geometry" />
        </mxCell>
        <mxCell id="346" value="free(cur)" style="rounded=0;whiteSpace=wrap;html=1;" parent="1" vertex="1">
          <mxGeometry x="10" y="640" width="120" height="60" as="geometry" />
        </mxCell>
        <mxCell id="354" style="edgeStyle=orthogonalEdgeStyle;rounded=0;orthogonalLoop=1;jettySize=auto;html=1;exitX=0.5;exitY=1;exitDx=0;exitDy=0;entryX=0.5;entryY=0;entryDx=0;entryDy=0;" parent="1" source="346" target="348" edge="1">
          <mxGeometry relative="1" as="geometry" />
        </mxCell>
        <mxCell id="345" value="ListElement * next = cur-&gt;NEXT" style="rounded=0;whiteSpace=wrap;html=1;" parent="1" vertex="1">
          <mxGeometry x="10" y="400" width="120" height="60" as="geometry" />
        </mxCell>
        <mxCell id="357" style="edgeStyle=orthogonalEdgeStyle;rounded=0;orthogonalLoop=1;jettySize=auto;html=1;exitX=0.5;exitY=1;exitDx=0;exitDy=0;entryX=0.5;entryY=0;entryDx=0;entryDy=0;" parent="1" source="345" target="347" edge="1">
          <mxGeometry relative="1" as="geometry" />
        </mxCell>
        <mxCell id="358" style="edgeStyle=orthogonalEdgeStyle;rounded=0;orthogonalLoop=1;jettySize=auto;html=1;exitX=0.5;exitY=1;exitDx=0;exitDy=0;entryX=0.5;entryY=0;entryDx=0;entryDy=0;" parent="1" source="349" target="345" edge="1">
          <mxGeometry relative="1" as="geometry" />
        </mxCell>
        <mxCell id="359" style="edgeStyle=orthogonalEdgeStyle;rounded=0;orthogonalLoop=1;jettySize=auto;html=1;exitX=0.5;exitY=1;exitDx=0;exitDy=0;entryX=0.5;entryY=0;entryDx=0;entryDy=0;" parent="1" source="350" target="352" edge="1">
          <mxGeometry relative="1" as="geometry" />
        </mxCell>
        <mxCell id="344" value="last_readed-&gt;NEXT = freeded_elements" style="rounded=0;whiteSpace=wrap;html=1;" parent="1" vertex="1">
          <mxGeometry x="10" y="240" width="120" height="60" as="geometry" />
        </mxCell>
        <mxCell id="360" style="edgeStyle=orthogonalEdgeStyle;rounded=0;orthogonalLoop=1;jettySize=auto;html=1;exitX=0.5;exitY=1;exitDx=0;exitDy=0;entryX=0.5;entryY=0;entryDx=0;entryDy=0;" parent="1" source="344" target="349" edge="1">
          <mxGeometry relative="1" as="geometry" />
        </mxCell>
        <mxCell id="343" value="TAIL" style="rhombus;whiteSpace=wrap;html=1;rounded=0;" parent="1" vertex="1">
          <mxGeometry x="10" y="60" width="120" height="60" as="geometry" />
        </mxCell>
        <mxCell id="342" value="TAIL-&gt;NEXT = freeded_elements;&lt;br&gt;freeded_elements = HEAD" style="rounded=0;whiteSpace=wrap;html=1;" parent="1" vertex="1">
          <mxGeometry x="10" y="140" width="120" height="60" as="geometry" />
        </mxCell>
        <mxCell id="361" style="edgeStyle=orthogonalEdgeStyle;rounded=0;orthogonalLoop=1;jettySize=auto;html=1;exitX=0.5;exitY=1;exitDx=0;exitDy=0;entryX=0.5;entryY=0;entryDx=0;entryDy=0;" parent="1" source="342" target="344" edge="1">
          <mxGeometry relative="1" as="geometry" />
        </mxCell>
        <mxCell id="362" style="edgeStyle=orthogonalEdgeStyle;rounded=0;orthogonalLoop=1;jettySize=auto;html=1;exitX=0.5;exitY=1;exitDx=0;exitDy=0;entryX=0.5;entryY=0;entryDx=0;entryDy=0;" parent="1" source="343" target="342" edge="1">
          <mxGeometry relative="1" as="geometry" />
        </mxCell>
        <mxCell id="363" style="edgeStyle=orthogonalEdgeStyle;rounded=0;orthogonalLoop=1;jettySize=auto;html=1;exitX=1;exitY=0.5;exitDx=0;exitDy=0;" parent="1" source="343" edge="1">
          <mxGeometry relative="1" as="geometry">
            <mxPoint x="70" y="220" as="targetPoint" />
            <Array as="points">
              <mxPoint x="170" y="90" />
              <mxPoint x="170" y="220" />
            </Array>
          </mxGeometry>
        </mxCell>
        <mxCell id="364" style="edgeStyle=orthogonalEdgeStyle;rounded=0;orthogonalLoop=1;jettySize=auto;html=1;exitX=0.5;exitY=1;exitDx=0;exitDy=0;entryX=0.5;entryY=0;entryDx=0;entryDy=0;" parent="1" source="351" target="343" edge="1">
          <mxGeometry relative="1" as="geometry" />
        </mxCell>
        <mxCell id="6v_WRbxLs9FEiF1PuRPo-367" style="edgeStyle=orthogonalEdgeStyle;rounded=0;orthogonalLoop=1;jettySize=auto;html=1;exitX=0.5;exitY=1;exitDx=0;exitDy=0;entryX=0.5;entryY=0;entryDx=0;entryDy=0;" parent="1" source="6v_WRbxLs9FEiF1PuRPo-364" target="346" edge="1">
          <mxGeometry relative="1" as="geometry">
            <mxPoint x="70" y="630" as="sourcePoint" />
          </mxGeometry>
        </mxCell>
        <mxCell id="6v_WRbxLs9FEiF1PuRPo-376" style="edgeStyle=orthogonalEdgeStyle;rounded=0;orthogonalLoop=1;jettySize=auto;html=1;exitX=1;exitY=0.5;exitDx=0;exitDy=0;" parent="1" source="6v_WRbxLs9FEiF1PuRPo-364" edge="1">
          <mxGeometry relative="1" as="geometry">
            <mxPoint x="170" y="590" as="targetPoint" />
          </mxGeometry>
        </mxCell>
        <mxCell id="6v_WRbxLs9FEiF1PuRPo-364" value="cur &amp;gt;&lt;br&gt;first_alloc_end&lt;br&gt;&amp;nbsp;" style="rhombus;whiteSpace=wrap;html=1;rounded=0;" parent="1" vertex="1">
          <mxGeometry x="10" y="560" width="120" height="60" as="geometry" />
        </mxCell>
        <mxCell id="6v_WRbxLs9FEiF1PuRPo-371" value="+" style="text;html=1;align=center;verticalAlign=middle;resizable=0;points=[];autosize=1;" parent="1" vertex="1">
          <mxGeometry x="70" y="620" width="20" height="20" as="geometry" />
        </mxCell>
        <mxCell id="6v_WRbxLs9FEiF1PuRPo-374" value="+" style="text;html=1;align=center;verticalAlign=middle;resizable=0;points=[];autosize=1;" parent="1" vertex="1">
          <mxGeometry x="70" y="540" width="20" height="20" as="geometry" />
        </mxCell>
        <mxCell id="6v_WRbxLs9FEiF1PuRPo-377" value="1" style="whiteSpace=wrap;html=1;aspect=fixed;" parent="1" vertex="1">
          <mxGeometry x="132" y="60" width="20" height="20" as="geometry" />
        </mxCell>
        <mxCell id="6v_WRbxLs9FEiF1PuRPo-378" value="2" style="whiteSpace=wrap;html=1;aspect=fixed;" parent="1" vertex="1">
          <mxGeometry x="132" y="140" width="20" height="20" as="geometry" />
        </mxCell>
        <mxCell id="6v_WRbxLs9FEiF1PuRPo-379" value="3" style="whiteSpace=wrap;html=1;aspect=fixed;" parent="1" vertex="1">
          <mxGeometry x="132" y="240" width="20" height="20" as="geometry" />
        </mxCell>
        <mxCell id="6v_WRbxLs9FEiF1PuRPo-380" value="4" style="whiteSpace=wrap;html=1;aspect=fixed;" parent="1" vertex="1">
          <mxGeometry x="132" y="320" width="20" height="20" as="geometry" />
        </mxCell>
        <mxCell id="6v_WRbxLs9FEiF1PuRPo-381" value="5" style="whiteSpace=wrap;html=1;aspect=fixed;" parent="1" vertex="1">
          <mxGeometry x="132" y="400" width="20" height="20" as="geometry" />
        </mxCell>
        <mxCell id="6v_WRbxLs9FEiF1PuRPo-382" value="6" style="whiteSpace=wrap;html=1;aspect=fixed;" parent="1" vertex="1">
          <mxGeometry x="132" y="480" width="20" height="20" as="geometry" />
        </mxCell>
        <mxCell id="6v_WRbxLs9FEiF1PuRPo-385" value="7" style="whiteSpace=wrap;html=1;aspect=fixed;" parent="1" vertex="1">
          <mxGeometry x="132" y="560" width="20" height="20" as="geometry" />
        </mxCell>
        <mxCell id="6v_WRbxLs9FEiF1PuRPo-386" value="8" style="whiteSpace=wrap;html=1;aspect=fixed;" parent="1" vertex="1">
          <mxGeometry x="132" y="640" width="20" height="20" as="geometry" />
        </mxCell>
        <mxCell id="6v_WRbxLs9FEiF1PuRPo-387" value="9" style="whiteSpace=wrap;html=1;aspect=fixed;" parent="1" vertex="1">
          <mxGeometry x="132" y="740" width="20" height="20" as="geometry" />
        </mxCell>
        <mxCell id="6v_WRbxLs9FEiF1PuRPo-388" value="10" style="whiteSpace=wrap;html=1;aspect=fixed;" parent="1" vertex="1">
          <mxGeometry x="132" y="820" width="20" height="20" as="geometry" />
        </mxCell>
        <mxCell id="6v_WRbxLs9FEiF1PuRPo-389" value="+" style="text;html=1;align=center;verticalAlign=middle;resizable=0;points=[];autosize=1;" parent="1" vertex="1">
          <mxGeometry x="70" y="120" width="20" height="20" as="geometry" />
        </mxCell>
      </root>
    </mxGraphModel>
  </diagram>
</mxfile>
